<?xml version="1.0" encoding="UTF-8"?>
<svg width="3164px" height="922px" viewBox="0 0 3164 922" version="1.1" xmlns="http://www.w3.org/2000/svg" xmlns:xlink="http://www.w3.org/1999/xlink">
    <!-- Generator: Sketch 54.1 (76490) - https://sketchapp.com -->
    <title>Deksia_logo</title>
    <desc>Created with Sketch.</desc>
    <g id="Page-1" stroke="none" stroke-width="1" fill="none" fill-rule="evenodd">
        <g id="Deksia_logo" transform="translate(-1.000000, 0.000000)" fill="#FFFFFF" fill-rule="nonzero">
            <path d="M451.05,656.59 L451.05,267.47 C451.05,267.38 451.05,267.27 451.05,267.21 C450.63,46.81 311.85,15.41 205.86,14.6 L205.86,14.6 L123.05,14.6 L123.05,14.6 L22.51,14.6 C16.7610431,14.6369768 11.262859,16.9590229 7.22777386,21.0541372 C3.19268872,25.1492515 0.952082764,30.6811238 1,36.43 L1,888.32 C0.946735274,894.074188 3.18434484,899.613277 7.21943784,903.715903 C11.2545308,907.818529 16.7557207,910.147759 22.51,910.19 L205.86,910.19 L205.86,910.19 C312,909.39 451.19,878 451.19,656.59 L451.05,656.59 Z M201.59,765.35 L179.76,765.35 C175.251257,765.307764 170.943981,763.476065 167.785825,760.257897 C164.62767,757.039729 162.877365,752.69874 162.92,748.19 L162.92,176.55 C162.874695,172.039537 164.623817,167.695975 167.78226,164.475638 C170.940703,161.255302 175.249507,159.422226 179.76,159.38 L201.45,159.38 C217.31,159.38 289.28,155.65 289.28,241.05 L289.28,683.72 C289.283869,683.96771 289.303912,684.214903 289.34,684.46 C288.93,769.03 217.34,765.35 201.59,765.35 L201.59,765.35 Z" id="Shape"></path>
            <path d="M1001.65,760.89 L804,760.89 C799.487784,760.855671 795.174335,759.02883 792.009992,755.811967 C788.84565,752.595104 787.090055,748.25217 787.13,743.74 L787.13,536.46 C787.069024,527.078834 794.618909,519.421542 804,519.35 L932.06,519.35 C944.053503,519.234552 953.685428,509.423595 953.58,497.43 L953.58,395.43 C953.66876,383.449733 944.040091,373.65999 932.06,373.55 L804,373.55 C794.626762,373.478453 787.080102,365.833378 787.13,356.46 L787.13,177.39 C787.091162,168.024413 794.634605,160.391539 804,160.32 L993.22,160.32 C1005.21897,160.220977 1014.86872,150.419054 1014.78,138.42 L1014.78,36.42 C1014.85763,24.428732 1005.21111,14.6390345 993.22,14.54 L678.88,14.54 L678.8,14.54 L646.86,14.54 C634.877595,14.6390224 625.241279,24.4275147 625.33,36.41 L625.33,888.32 C625.241279,900.302485 634.877595,910.090978 646.86,910.19 L1001.65,910.19 C1007.40966,910.142467 1012.91436,907.808073 1016.95235,903.700691 C1020.99034,899.593308 1023.2306,894.049634 1023.18,888.29 L1023.18,782.76 C1023.26872,770.777515 1013.6324,760.989022 1001.65,760.89" id="Path"></path>
            <path d="M1653.55,883.77 C1653.52922,883.661947 1653.50251,883.555119 1653.47,883.45 C1653.34551,882.63189 1653.17862,881.820798 1652.97,881.02 L1498.55,373.16 L1637.48,43 C1637.6584,42.4597403 1637.80203,41.908613 1637.91,41.35 C1639.04769,38.8602083 1639.64415,36.1573607 1639.66,33.42 C1639.71564,22.9691147 1631.3204,14.4353633 1620.87,14.32 L1503,14.32 C1495.54347,14.360381 1488.82037,18.8175807 1485.88,25.67 L1485.8,25.67 L1363.4,316.46 L1363.4,316.37 C1362.42603,318.744912 1359.90013,320.090844 1357.38567,319.574746 C1354.87122,319.058647 1353.07972,316.826555 1353.12,314.26 L1353.12,36.16 C1353.20319,24.1852782 1343.57455,14.404513 1331.6,14.3 L1212.85,14.3 C1207.09656,14.3422623 1201.59589,16.669796 1197.55949,20.76996 C1193.5231,24.8701239 1191.28208,30.406609 1191.33,36.16 L1191.33,888.06 C1191.28207,893.814324 1193.52278,899.351845 1197.55889,903.453596 C1201.595,907.555348 1207.09565,909.885097 1212.85,909.93 L1331.61,909.93 C1343.58384,909.814531 1353.2077,900.03414 1353.13,888.06 L1353.13,633.55 L1384.06,560.06 C1384.83123,558.0839 1386.82149,556.860807 1388.93287,557.065433 C1391.04424,557.27006 1392.76259,558.852578 1393.14,560.94 L1495.54,897.5 L1495.61,897.56 C1498.28506,904.952842 1505.28815,909.891739 1513.15,909.93 L1631.44,909.93 L1631.74,909.87 C1632,909.87 1632.21,909.93 1632.41,909.93 C1643.52312,909.831817 1652.75338,901.32787 1653.76,890.26 C1653.76,889.88 1653.85,889.52 1653.89,889.1 C1653.93,888.68 1653.89,888.39 1653.89,888.03 C1653.89,887.67 1653.89,887.35 1653.89,886.97 C1653.89,885.97 1653.7,884.84 1653.55,883.77" id="Path"></path>
            <path d="M2516.94,16.3 L2398.2,16.3 C2386.21601,16.3990296 2376.57683,26.1858845 2376.66,38.17 L2376.66,892.88 C2376.58235,904.861875 2386.21833,914.645484 2398.2,914.75 L2516.94,914.75 C2528.82404,914.629755 2538.40685,904.984566 2538.45,893.1 L2538.45,38 C2538.42317,26.1054009 2528.83407,16.4449731 2516.94,16.33" id="Path"></path>
            <path d="M1931.6,214 C1931.6,165.93 1956.73,145 1989.46,145 C2033.11,145 2052.91,178.22 2052.91,239.2 L2052.91,290.85 C2052.92056,302.751315 2062.51909,312.421239 2074.42,312.52 L2183.08,312.19 C2188.83254,312.145117 2194.33116,309.814724 2198.36409,305.712386 C2202.39703,301.610049 2204.63327,296.072468 2204.58,290.32 L2204.58,225.43 C2204.58,85.9 2113.6,0 1990.65,0 C1866.9,0 1776.4,83 1776.4,225.77 C1776.4,453.26 2056.88,540.77 2056.88,707.43 C2056.88,755.43 2026.62,776.43 1992.72,776.43 C1947.48,776.43 1921.31,743.19 1921.31,682.23 L1921.31,611.72 C1921.29954,599.82089 1911.70861,590.149665 1899.81,590.04 L1790.81,590.04 C1785.05036,590.079638 1779.54254,592.40642 1775.49894,596.508162 C1771.45533,600.609905 1769.20741,606.150383 1769.25,611.91 L1769.25,695.64 C1769.25,835.19 1863.95,921.34 1991.43,921.34 C2119.76,921.34 2213.6,838.34 2213.6,695.61 C2213.6,441.5 1931.6,368.75 1931.6,213.96" id="Path"></path>
            <path d="M3164.63,882.31 L3164.63,882.25 L3017.12,30.13 L3017,30 C3014.95264,20.4684723 3006.54883,13.6455718 2996.8,13.6 L2996.8,13.6 L2996.8,13.6 L2851.41,13.6 C2841.95082,13.6821614 2833.73591,20.1308669 2831.41,29.3 L2831.22,29.46 L2683.56,882.15 L2683.63,882.22 C2683.39,883.540127 2683.26287,884.878296 2683.25,886.22 C2683.18872,892.06688 2685.45754,897.69763 2689.55539,901.868652 C2693.65324,906.039673 2699.24295,908.407796 2705.09,908.45 L2813.36,908.45 C2824.15553,908.339011 2833.26593,900.390731 2834.84,889.71 L2835.04,889.55 L2856.24,744.12 L2856.24,744.12 C2857.64171,733.803836 2866.40938,726.084192 2876.82,726 L2971.35,726 C2981.60286,726.079573 2990.28705,733.578207 2991.86,743.71 L2991.86,743.51 L3013.23,889.88 L3013.36,890.01 C3015.07471,900.541654 3024.13001,908.304551 3034.8,908.39 L3143.16,908.39 C3149.0018,908.347756 3154.58692,905.983757 3158.6839,901.819245 C3162.78088,897.654733 3165.05326,892.031709 3165,886.19 C3164.98667,884.888527 3164.86289,883.590535 3164.63,882.31 M2952.75,583.93 L2895.44,583.93 C2887.83016,583.869469 2881.70564,577.659949 2881.75,570.05 C2881.75,569.66 2881.8,569.27 2881.83,568.92 L2915.57,337.5 C2916.54264,333.597307 2920.04793,330.858396 2924.07,330.858396 C2928.09207,330.858396 2931.59736,333.597307 2932.57,337.5 L2966.34,568.85 C2966.38162,569.24857 2966.39832,569.649349 2966.39,570.05 C2966.41928,573.703785 2964.99517,577.219402 2962.43124,579.82272 C2959.86731,582.426038 2956.37381,583.903582 2952.72,583.93" id="Shape"></path>
        </g>
    </g>
</svg>